<?xml version="1.0" encoding="iso-8859-1"?>
<!-- Generator: Adobe Illustrator 19.0.0, SVG Export Plug-In . SVG Version: 6.00 Build 0)  -->
<svg version="1.1" id="Capa_1" xmlns="http://www.w3.org/2000/svg" xmlns:xlink="http://www.w3.org/1999/xlink" x="0px" y="0px"
	 viewBox="0 0 512 512" style="enable-background:new 0 0 512 512;" xml:space="preserve">
<g>
	<g transform="translate(1 1)">
		<path style="fill:#A4C2F7;" d="M391.533,482.887l0,19.456H118.466l0.001-20.736c-0.108-18.665,9.924-35.917,26.198-45.056
			l55.807-31.147c7.345-4.201,11.872-12.019,11.861-20.48V370.93c0.008-1.412-0.441-2.789-1.28-3.925
			c-11.372-15.283-19.635-32.65-24.32-51.115v-71.68c0,0-6.571-50.859,55.467-57.003c4.253-0.424,8.526-0.624,12.8-0.597
			c75.691,0,68.267,57.6,68.267,57.6v71.68c-4.685,18.465-12.948,35.831-24.32,51.115c-0.839,1.136-1.288,2.513-1.28,3.925v14.592
			c-0.078,8.772,4.767,16.848,12.544,20.907l53.589,30.464C380.905,445.846,391.599,463.581,391.533,482.887z"/>
		<g>
			<path style="fill:#E3E7F2;" d="M365.933,482.887l0,19.456H118.466l0.001-20.736c-0.108-18.665,9.924-35.917,26.198-45.056
				l55.807-31.147c7.345-4.201,11.872-12.019,11.861-20.48V370.93c0.008-1.412-0.441-2.789-1.28-3.925
				c-11.372-15.283-19.635-32.65-24.32-51.115v-71.68c0,0-6.571-50.859,55.467-57.003c62.037,6.144,55.467,57.003,55.467,57.003
				v71.68c-4.685,18.465-12.948,35.831-24.32,51.115c-0.839,1.136-1.288,2.513-1.28,3.925v14.592
				c-0.078,8.772,4.767,16.848,12.544,20.907l53.589,30.464C355.305,445.846,365.999,463.581,365.933,482.887z"/>
			<path style="fill:#E3E7F2;" d="M306.2,67.143h-25.6v68.267c0,4.713-3.82,8.533-8.533,8.533h-34.133
				c-4.713,0-8.533-3.821-8.533-8.533V67.143h-25.6L255,7.41L306.2,67.143z"/>
			<path style="fill:#E3E7F2;" d="M67.267,229.276v25.6h68.267c4.713,0,8.533,3.821,8.533,8.533v34.133
				c0,4.713-3.821,8.533-8.533,8.533H67.267v25.6l-59.733-51.2L67.267,229.276z"/>
			<path style="fill:#E3E7F2;" d="M137.175,81.71l-18.102,18.102l48.272,48.272c3.332,3.332,3.332,8.735,0,12.068l-24.136,24.136
				c-3.332,3.332-8.735,3.332-12.068,0l-48.272-48.272l-18.102,18.102l-6.034-78.442L137.175,81.71z"/>
			<path style="fill:#E3E7F2;" d="M372.825,81.71l18.102,18.102l-48.272,48.272c-3.332,3.332-3.332,8.735,0,12.068l24.136,24.136
				c3.332,3.332,8.735,3.332,12.068,0l48.272-48.272l18.102,18.102l6.034-78.442L372.825,81.71z"/>
			<path style="fill:#E3E7F2;" d="M442.733,229.276v25.6h-68.267c-4.713,0-8.533,3.821-8.533,8.533v34.133
				c0,4.713,3.821,8.533,8.533,8.533h68.267v25.6l59.733-51.2L442.733,229.276z"/>
		</g>
		<g>
			<path style="fill:#FFFFFF;" d="M390.927,99.812l-48.272,48.272c-3.332,3.332-3.332,8.735,0,12.068l24.137,24.136
				c1.6,1.6,3.77,2.499,6.033,2.499s4.433-0.899,6.033-2.499l6.767-6.767l-17.37-17.369c-3.332-3.332-3.332-8.735,0-12.068
				l48.272-48.272L398.425,81.71l52.69-4.053l0.152-1.98l-78.442,6.034L390.927,99.812z"/>
			<polygon style="fill:#FFFFFF;" points="67.267,331.676 67.267,309.737 33.133,280.476 67.267,251.216 67.267,229.276 
				7.533,280.476 			"/>
			<path style="fill:#FFFFFF;" d="M400.067,254.876h-25.6c-4.713,0-8.533,3.821-8.533,8.533v34.133c0,4.713,3.821,8.533,8.533,8.533
				h25.6c-4.713,0-8.533-3.82-8.533-8.533V263.41C391.533,258.697,395.354,254.876,400.067,254.876z"/>
			<polygon style="fill:#FFFFFF;" points="446.113,142.629 439.934,148.816 445.234,154.115 			"/>
			<path style="fill:#FFFFFF;" d="M131.142,184.288c1.6,1.6,3.77,2.499,6.033,2.499s4.433-0.899,6.033-2.499l6.767-6.767
				l-41.506-41.505l-12.8,12.8L131.142,184.288z"/>
			<polygon style="fill:#FFFFFF;" points="255,7.41 203.8,67.143 229.4,67.143 267.8,22.343 			"/>
			<path style="fill:#FFFFFF;" d="M237.933,143.943h25.6c-4.713,0-8.533-3.821-8.533-8.533V67.143h-25.6v68.267
				C229.4,140.123,233.221,143.943,237.933,143.943z"/>
			<path style="fill:#FFFFFF;" d="M144.067,481.607c-0.108-18.665,9.924-35.917,26.198-45.056l55.807-31.147
				c7.345-4.201,11.872-12.019,11.861-20.48V370.93c0.008-1.412-0.441-2.789-1.28-3.925c-11.372-15.283-19.635-32.65-24.32-51.115
				v-71.68c0,0-6.56-50.814,55.396-56.992c-3.963-0.39-8.187-0.608-12.729-0.608c-4.274-0.026-8.547,0.173-12.8,0.597
				c-62.037,6.144-55.467,57.003-55.467,57.003v71.68c4.685,18.465,12.948,35.831,24.32,51.115c0.839,1.136,1.288,2.513,1.28,3.925
				v13.995c0.011,8.461-4.517,16.279-11.861,20.48l-55.807,31.147c-16.274,9.139-26.306,26.391-26.198,45.056l-0.001,20.736h25.601
				V481.607z"/>
			<polygon style="fill:#FFFFFF;" points="64.766,154.115 82.866,136.016 89.487,142.629 84.487,77.656 58.733,75.676 			"/>
		</g>
	</g>
	<g>
		<polygon style="fill:#FFFFFF;" points="119.467,494.81 230.4,494.81 392.533,494.81 392.533,511.876 230.4,511.876 
			119.467,511.876 		"/>
		<g>
			<path style="fill:#428DFF;" d="M181.675,497.284l-1.025,1.279c-0.324,0.476-0.583,0.993-0.771,1.538
				c-0.246,0.484-0.417,1.002-0.508,1.537c-0.096,0.564-0.153,1.133-0.17,1.705c0.031,2.259,0.915,4.423,2.475,6.059
				c1.994,2.07,4.908,2.979,7.726,2.409c2.818-0.57,5.149-2.539,6.183-5.222c0.438-1.027,0.67-2.13,0.684-3.246
				c-0.014-3.45-2.096-6.556-5.282-7.879C187.798,494.141,184.128,494.858,181.675,497.284z"/>
			<path style="fill:#428DFF;" d="M179.2,245.651v71.258c-0.002,0.625,0.068,1.249,0.208,1.858
				c4.942,19.394,13.562,37.658,25.392,53.8v13.333c0.058,5.39-2.822,10.384-7.517,13.033l-55.8,31.158
				c-18.964,10.659-30.659,30.762-30.55,52.517v20.733c-0.001,2.264,0.897,4.435,2.498,6.035c1.601,1.601,3.772,2.499,6.035,2.498
				H153.6c4.713,0,8.533-3.82,8.533-8.533s-3.821-8.533-8.533-8.533H128v-12.2c-0.107-15.562,8.232-29.958,21.783-37.608
				l55.775-31.142c10.125-5.652,16.373-16.363,16.308-27.958v-13.983c0.01-3.23-1.028-6.376-2.958-8.967
				c-10.434-14.105-18.115-30.05-22.642-47V245.21c-0.001-0.362-0.023-0.724-0.067-1.084c-0.81-11.241,2.732-22.363,9.892-31.067
				c9.883-11.224,26.675-16.916,49.908-16.916c23.125,0,39.867,5.642,49.766,16.767c7.253,8.718,10.849,19.905,10.033,31.217
				c-0.043,0.36-0.065,0.721-0.066,1.083v70.741c-4.524,16.945-12.202,32.884-22.633,46.983c-1.934,2.595-2.975,5.747-2.967,8.984
				v14.625c-0.122,11.832,6.369,22.744,16.825,28.284l53.95,30.7c14.306,7.418,23.231,22.244,23.091,38.358v10.925H221.867
				c-4.713,0-8.533,3.821-8.533,8.533s3.821,8.533,8.533,8.533h170.667c2.264,0.001,4.435-0.897,6.035-2.498
				c1.601-1.601,2.499-3.772,2.498-6.035v-19.458c0.189-22.392-12.183-43.003-32.033-53.367l-53.942-30.692
				c-4.918-2.593-7.966-7.724-7.892-13.283v-13.975c11.829-16.143,20.449-34.407,25.392-53.8c0.14-0.609,0.21-1.233,0.208-1.858
				v-71.258c1.256-15.905-3.804-31.665-14.083-43.867c-13.258-15.067-34.358-22.708-62.717-22.708s-49.458,7.642-62.717,22.708
				C183.004,213.986,177.944,229.746,179.2,245.651z"/>
			<path style="fill:#428DFF;" d="M238.933,153.476h34.133c9.421-0.012,17.054-7.646,17.067-17.067V76.676H307.2
				c3.332,0,6.358-1.94,7.75-4.967c1.392-3.027,0.894-6.587-1.275-9.116l-51.2-59.733c-1.667-1.809-4.015-2.838-6.475-2.838
				c-2.46,0-4.808,1.029-6.475,2.838l-51.2,59.733c-2.169,2.529-2.667,6.089-1.275,9.116c1.392,3.027,4.418,4.967,7.75,4.967h17.067
				v59.733C221.879,145.83,229.513,153.464,238.933,153.476z M256,21.518l32.65,38.092h-7.05c-2.264-0.001-4.435,0.897-6.035,2.498
				c-1.601,1.601-2.499,3.772-2.498,6.035v68.267h-34.133V68.143c0.001-2.264-0.897-4.435-2.498-6.035s-3.772-2.499-6.035-2.498
				h-7.05L256,21.518z"/>
			<path style="fill:#428DFF;" d="M0,281.476c0,2.491,1.09,4.857,2.983,6.475l59.733,51.2c2.529,2.169,6.089,2.667,9.116,1.275
				c3.027-1.392,4.967-4.418,4.967-7.75V315.61h59.733c9.421-0.012,17.054-7.646,17.067-17.067V264.41
				c-0.012-9.421-7.646-17.054-17.067-17.067H76.8v-17.067c0-3.332-1.94-6.358-4.967-7.75s-6.587-0.894-9.116,1.275l-59.733,51.2
				C1.09,276.62,0,278.986,0,281.476z M59.733,248.826v7.05c-0.001,2.264,0.897,4.435,2.498,6.035s3.772,2.499,6.035,2.498h68.267
				v34.133H68.267c-2.264-0.001-4.435,0.897-6.035,2.498c-1.601,1.601-2.499,3.772-2.498,6.035v7.05l-38.092-32.65L59.733,248.826z"
				/>
			<path style="fill:#428DFF;" d="M146.175,79.751c-1.154-3.124-4.021-5.292-7.342-5.55l-78.442-6.033
				c-2.485-0.191-4.929,0.713-6.691,2.475c-1.762,1.762-2.666,4.206-2.475,6.691l6.033,78.442c0.259,3.321,2.426,6.187,5.55,7.342
				c3.124,1.155,6.635,0.387,8.991-1.967l12.067-12.067l42.242,42.233c6.668,6.656,17.466,6.656,24.133,0l24.133-24.133
				c6.658-6.667,6.658-17.467,0-24.133l-42.233-42.242l12.067-12.067C146.565,86.388,147.334,82.875,146.175,79.751z
				 M162.308,155.118l-24.133,24.133L89.9,130.985c-1.6-1.601-3.77-2.5-6.033-2.5c-2.263,0-4.434,0.899-6.033,2.5l-4.983,4.983
				l-3.842-50.017l50.017,3.842l-4.983,4.983c-1.601,1.6-2.5,3.77-2.5,6.033s0.899,4.434,2.5,6.033L162.308,155.118z"/>
			<path style="fill:#428DFF;" d="M337.625,167.185l24.133,24.133c6.668,6.656,17.466,6.656,24.133,0l42.242-42.233l12.067,12.067
				c2.357,2.354,5.867,3.122,8.991,1.967c3.124-1.155,5.291-4.021,5.55-7.342l6.033-78.442c0.192-2.485-0.712-4.929-2.475-6.692
				c-1.75-1.781-4.204-2.688-6.692-2.475l-78.442,6.033c-3.321,0.259-6.187,2.426-7.342,5.55s-0.387,6.635,1.967,8.991
				l12.067,12.067l-42.233,42.242C330.967,149.718,330.967,160.518,337.625,167.185z M397.958,106.843c1.601-1.6,2.5-3.77,2.5-6.033
				c0-2.263-0.899-4.434-2.5-6.033l-4.983-4.983l50.017-3.842l-3.842,50.017l-4.984-4.983c-1.6-1.601-3.77-2.5-6.033-2.5
				c-2.263,0-4.434,0.899-6.033,2.5l-48.275,48.267l-24.133-24.133L397.958,106.843z"/>
			<path style="fill:#428DFF;" d="M449.283,223.801c-2.529-2.169-6.089-2.667-9.116-1.275c-3.027,1.392-4.967,4.418-4.967,7.75
				v17.067h-59.733c-9.421,0.012-17.054,7.646-17.067,17.067v34.133c0.012,9.421,7.646,17.054,17.067,17.067H435.2v17.067
				c-0.002,3.333,1.937,6.361,4.965,7.754s6.59,0.893,9.118-1.279l59.733-51.2c1.893-1.618,2.983-3.984,2.983-6.475
				s-1.09-4.857-2.983-6.475L449.283,223.801z M452.267,314.126v-7.05c0.001-2.264-0.897-4.435-2.498-6.035
				c-1.601-1.601-3.772-2.499-6.035-2.498h-68.267V264.41h68.267c2.264,0.001,4.435-0.897,6.035-2.498
				c1.601-1.601,2.499-3.772,2.498-6.035v-7.05l38.092,32.65L452.267,314.126z"/>
		</g>
	</g>
</g>
<g>
</g>
<g>
</g>
<g>
</g>
<g>
</g>
<g>
</g>
<g>
</g>
<g>
</g>
<g>
</g>
<g>
</g>
<g>
</g>
<g>
</g>
<g>
</g>
<g>
</g>
<g>
</g>
<g>
</g>
</svg>
