<?xml version="1.0" encoding="iso-8859-1"?>
<!-- Generator: Adobe Illustrator 19.0.0, SVG Export Plug-In . SVG Version: 6.00 Build 0)  -->
<svg version="1.1" id="Capa_1" xmlns="http://www.w3.org/2000/svg" xmlns:xlink="http://www.w3.org/1999/xlink" x="0px" y="0px"
	 viewBox="0 0 511.997 511.997" style="enable-background:new 0 0 511.997 511.997;" xml:space="preserve">
<g>
	<g transform="translate(1)">
		<g>
			<polygon style="fill:#E3E7F2;" points="167.446,404.062 68.118,503.304 62.06,448.776 7.532,442.718 98.07,352.179 			"/>
			<polygon style="fill:#E3E7F2;" points="411.926,352.179 502.465,442.718 447.937,448.776 441.878,503.304 342.55,403.976 			"/>
		</g>
		<path style="fill:#A4C2F7;" d="M454.934,316.424c-6.997,14.251-29.867,18.688-39.851,30.891
			c-9.899,12.288-9.301,35.243-21.76,45.056c-12.373,9.728-34.987,4.011-49.493,10.923c-14.165,6.741-23.723,27.733-39.424,31.232
			c-6.506,0.961-13.15,0.104-19.2-2.475c-9.54-4.528-19.735-7.523-30.208-8.875c-4.367,0.105-8.689,0.912-12.8,2.389
			c-12.459,4.011-25.259,11.52-36.608,8.96c-2.235-0.533-4.388-1.365-6.4-2.475c-12.117-6.741-20.907-22.955-33.109-28.757
			c-14.421-6.912-37.035-1.195-49.408-10.923c-12.459-9.813-11.861-32.768-21.845-45.056c-9.899-12.203-32.768-16.64-39.765-30.891
			c-6.827-13.995,3.84-34.389,0.256-49.835c-3.499-15.019-22.187-28.843-22.187-44.885s18.688-29.867,22.187-44.885
			c3.584-15.445-7.083-35.84-0.256-49.835c6.997-14.251,29.867-18.688,39.851-30.891c9.899-12.288,9.301-35.243,21.76-45.056
			c12.373-9.728,34.987-4.011,49.493-10.923c12.117-5.803,20.907-22.016,33.024-28.757c2.012-1.11,4.165-1.942,6.4-2.475
			c11.349-2.56,24.149,4.949,36.608,8.96c4.111,1.477,8.433,2.284,12.8,2.389c10.473-1.351,20.668-4.346,30.208-8.875
			c6.049-2.579,12.694-3.436,19.2-2.475c15.701,3.499,25.259,24.491,39.509,31.232c14.421,6.912,37.035,1.195,49.408,10.923
			c12.459,9.813,11.861,32.768,21.845,45.056c9.899,12.203,32.768,16.64,39.765,30.891c6.827,13.995-3.84,34.389-0.256,49.835
			c3.499,15.019,22.187,28.843,22.187,44.885s-18.688,29.867-22.187,44.885C451.094,282.035,461.761,302.43,454.934,316.424z"/>
		<path style="fill:#E3E7F2;" d="M429.334,316.424c-6.997,14.251-29.867,18.688-39.851,30.891
			c-9.899,12.288-9.301,35.243-21.76,45.056c-12.373,9.728-34.987,4.011-49.493,10.923c-12.117,5.803-20.907,22.016-33.024,28.757
			c-2.012,1.11-4.165,1.942-6.4,2.475c-11.349,2.56-24.149-4.949-36.608-8.96c-4.111-1.477-8.433-2.284-12.8-2.389
			c-10.473,1.351-20.668,4.346-30.208,8.875c-12.117-6.741-20.907-22.955-33.109-28.757c-14.421-6.912-37.035-1.195-49.408-10.923
			c-12.459-9.813-11.861-32.768-21.845-45.056c-9.899-12.203-32.768-16.64-39.765-30.891c-6.827-13.995,3.84-34.389,0.256-49.835
			c-3.499-15.019-22.187-28.843-22.187-44.885s18.688-29.867,22.187-44.885c3.584-15.445-7.083-35.84-0.256-49.835
			c6.997-14.251,29.867-18.688,39.851-30.891c9.899-12.288,9.301-35.243,21.76-45.056c12.373-9.728,34.987-4.011,49.493-10.923
			c12.117-5.803,20.907-22.016,33.024-28.757c9.54,4.528,19.735,7.523,30.208,8.875c4.367-0.105,8.689-0.912,12.8-2.389
			c12.459-4.011,25.259-11.52,36.608-8.96c2.235,0.533,4.388,1.365,6.4,2.475c12.117,6.741,20.907,22.955,33.109,28.757
			c14.421,6.912,37.035,1.195,49.408,10.923c12.459,9.813,11.861,32.768,21.845,45.056c9.899,12.203,32.768,16.64,39.765,30.891
			c6.827,13.995-3.84,34.389-0.256,49.835c3.499,15.019,22.187,28.843,22.187,44.885s-18.688,29.867-22.187,44.885
			C425.494,282.035,436.161,302.43,429.334,316.424z"/>
		<path style="fill:#A4C2F7;" d="M408.598,221.704c-0.007,84.828-68.772,153.593-153.6,153.6c-4.352,0-8.619-0.171-12.8-0.512
			c-79.594-6.668-140.8-73.215-140.8-153.088s61.206-146.42,140.8-153.088c4.181-0.342,8.448-0.512,12.8-0.512
			C339.826,68.111,408.592,136.876,408.598,221.704z"/>
		<g>
			<ellipse style="fill:#E3E7F2;" cx="242.198" cy="221.704" rx="140.8" ry="153.088"/>
			<path style="fill:#E3E7F2;" d="M350.913,341.683c-56.086,44.829-135.743,44.829-191.829,0l2.048-2.645
				c2.42-3.261,5.431-6.04,8.875-8.192l22.869-14.421l28.587,24.747l34.133-32.341l21.419,20.309l12.715,12.032l28.075-24.32
				l22.187,13.995c3.444,2.152,6.454,4.931,8.875,8.192L350.913,341.683z"/>
			<path style="fill:#E3E7F2;" d="M159.084,341.683l2.048-2.645c2.42-3.261,5.43-6.04,8.875-8.192l22.869-14.421l26.027-16.469
				c1.387-0.819,2.232-2.315,2.219-3.925v-14.507c-0.022-0.946-0.318-1.865-0.853-2.645c-5.558-7.806-9.104-16.863-10.325-26.368
				c-0.632-3.414-2.266-6.563-4.693-9.045c-3.226-3.276-5.034-7.69-5.035-12.288v-16.555c0.004-2.69,0.616-5.345,1.792-7.765
				l0.939-1.877c1.212-2.441,1.854-5.125,1.877-7.851v-23.637c-0.154-20.298,16.139-36.898,36.437-37.12h27.477
				c20.298,0.222,36.592,16.822,36.437,37.12v23.637c0.024,2.725,0.666,5.41,1.877,7.851l0.939,1.877
				c1.176,2.42,1.788,5.075,1.792,7.765v16.555c0,4.598-1.809,9.012-5.035,12.288c-2.428,2.482-4.061,5.631-4.693,9.045
				c-1.221,9.505-4.767,18.562-10.325,26.368c-0.535,0.78-0.832,1.699-0.853,2.645v14.507c-0.014,1.611,0.832,3.106,2.219,3.925
				l0.171,0.085h0.085l26.453,16.811l22.187,13.995c3.444,2.152,6.454,4.931,8.875,8.192l2.048,2.645H159.084z"/>
		</g>
		<g>
			<polygon style="fill:#FFFFFF;" points="255.596,308.83 221.462,341.171 192.876,316.424 218.902,299.955 221.462,300.296 			"/>
			<polygon style="fill:#FFFFFF;" points="317.804,316.851 289.729,341.171 277.014,329.139 255.596,308.83 291.265,300.04 
				291.35,300.04 			"/>
		</g>
		<path style="fill:#A4C2F7;" d="M309.782,214.622v16.555c0,4.598-1.809,9.012-5.035,12.288c-2.428,2.482-4.062,5.631-4.693,9.045
			c-1.221,9.505-4.767,18.562-10.325,26.368c-0.535,0.78-0.832,1.699-0.853,2.645v14.507c-0.013,1.611,0.832,3.106,2.219,3.925
			l0.171,0.085l-35.669,8.789l-10.923-2.731l-23.211-5.803l-2.56-0.341c1.387-0.819,2.232-2.315,2.219-3.925v-14.507
			c-0.022-0.946-0.318-1.865-0.853-2.645c-5.558-7.806-9.104-16.863-10.325-26.368c-0.632-3.414-2.265-6.563-4.693-9.045
			c-3.226-3.276-5.034-7.69-5.035-12.288v-16.555c0.004-2.69,0.617-5.345,1.792-7.765l0.939-1.877
			c1.212-2.441,1.853-5.125,1.877-7.851v-23.637c-0.154-20.299,16.139-36.898,36.437-37.12h27.477
			c20.298,0.222,36.592,16.822,36.437,37.12v23.637c0.024,2.725,0.666,5.409,1.877,7.851l0.939,1.877
			C309.166,209.276,309.778,211.931,309.782,214.622z"/>
		<path style="fill:#D4E1F4;" d="M287.766,214.622v16.555c0,4.598-1.809,9.012-5.035,12.288c-2.428,2.482-4.061,5.631-4.693,9.045
			c-1.221,9.505-4.767,18.562-10.325,26.368c-0.535,0.78-0.832,1.699-0.853,2.645v14.507c-0.014,1.611,0.832,3.106,2.219,3.925
			l0.171,0.085l-24.576,6.059l-23.211-5.803l-2.56-0.341c1.387-0.819,2.232-2.315,2.219-3.925v-14.507
			c-0.022-0.946-0.318-1.865-0.853-2.645c-5.558-7.806-9.104-16.863-10.325-26.368c-0.632-3.414-2.265-6.563-4.693-9.045
			c-3.226-3.276-5.034-7.69-5.035-12.288v-16.555c0.004-2.69,0.617-5.345,1.792-7.765l0.939-1.877
			c1.212-2.441,1.853-5.125,1.877-7.851v-23.637c-0.154-20.299,16.139-36.898,36.437-37.12h5.461
			c20.298,0.222,36.592,16.822,36.437,37.12v23.637c0.024,2.725,0.666,5.41,1.877,7.851l0.939,1.877
			C287.15,209.276,287.763,211.931,287.766,214.622z"/>
		<path style="fill:#35495E;" d="M192.876,316.424l-0.085-0.085"/>
	</g>
	<g transform="translate(1 1)">
		<path style="fill:#FFFFFF;" d="M289.433,432.373c0.294,0.084,0.591,0.183,0.884,0.262
			C290.024,432.556,289.727,432.457,289.433,432.373z"/>
		<path style="fill:#FFFFFF;" d="M285.486,10.27l-0.28,0.088c-2.012-1.11-4.165-1.942-6.4-2.475
			c-8.173-0.936-16.442,0.516-23.808,4.179c4.259,1.644,8.548,3.412,12.8,4.781C273.682,14.949,279.639,12.295,285.486,10.27z"/>
		<path style="fill:#FFFFFF;" d="M68.118,502.304l23.042-23.022l-3.501-31.506l-54.528-6.059l90.492-90.493
			c-0.906-1.735-1.977-3.379-3.196-4.91c-9.899-12.203-32.768-16.64-39.765-30.891c-6.827-13.995,3.84-34.389,0.256-49.835
			c-3.499-15.019-22.187-28.843-22.187-44.885s18.688-29.867,22.187-44.885c3.584-15.445-7.083-35.84-0.256-49.835
			c6.997-14.251,29.867-18.688,39.851-30.891c9.899-12.288,9.301-35.243,21.76-45.056c12.373-9.728,34.987-4.011,49.493-10.923
			c12.113-5.801,20.9-22.004,33.011-28.749c-6.042-2.591-12.685-3.451-19.187-2.483c-2.235,0.533-4.388,1.365-6.4,2.475
			c-12.117,6.741-20.907,22.955-33.024,28.757c-14.507,6.912-37.12,1.195-49.493,10.923c-12.459,9.813-11.861,32.768-21.76,45.056
			c-9.984,12.203-32.853,16.64-39.851,30.891c-6.827,13.995,3.84,34.389,0.256,49.835c-3.499,15.019-22.187,28.843-22.187,44.885
			s18.688,29.867,22.187,44.885c3.584,15.445-7.083,35.84-0.256,49.835c6.997,14.251,29.867,18.688,39.765,30.891
			c1.22,1.531,2.29,3.175,3.196,4.91L7.532,441.718l54.528,6.059L68.118,502.304z"/>
		<path style="fill:#FFFFFF;" d="M289.402,9.045c0.307-0.088,0.616-0.191,0.922-0.273C290.018,8.854,289.708,8.957,289.402,9.045z"
			/>
		<path style="fill:#FFFFFF;" d="M294.154,7.936c0.341-0.061,0.688-0.153,1.028-0.204C294.841,7.783,294.495,7.874,294.154,7.936z"
			/>
		<path style="fill:#FFFFFF;" d="M298.811,7.446c0.356-0.01,0.721-0.071,1.075-0.066C299.532,7.376,299.168,7.436,298.811,7.446z"/>
		<path style="fill:#FFFFFF;" d="M309.6,9.795c0.219,0.106,0.444,0.196,0.661,0.308C310.045,9.989,309.819,9.903,309.6,9.795z"/>
	</g>
	<g>
		<polygon style="fill:#FFFFFF;" points="105.103,358.212 26.665,436.65 14.565,448.751 2.499,436.685 14.599,424.584 
			93.037,346.146 		"/>
		<g>
			<path style="fill:#428DFF;" d="M418.132,221.704c0-89.544-72.59-162.133-162.133-162.133S93.865,132.161,93.865,221.704
				s72.59,162.133,162.133,162.133C345.5,383.736,418.03,311.206,418.132,221.704z M172.675,340.264
				c0.919-0.802,1.896-1.535,2.923-2.193l17.471-11.061l23.808,20.611c3.316,2.872,8.269,2.762,11.454-0.254l28.265-26.781
				l28.265,26.781c3.185,3.017,8.138,3.127,11.454,0.254l23.292-20.178l16.862,10.669c1.003,0.645,1.957,1.364,2.854,2.149
				C289.396,375.606,222.603,375.607,172.675,340.264L172.675,340.264z M300.407,208.759l0.933,1.9
				c0.598,1.238,0.906,2.596,0.9,3.971v16.533c0.006,2.36-0.909,4.629-2.55,6.325c-3.599,3.658-6.043,8.293-7.029,13.329l-0.4,2.092
				c-1.112,7.684-4.073,14.984-8.629,21.271c-1.451,2.176-2.233,4.73-2.25,7.346v12.31l-24.788,6.198l-25.979-6.496v-12.013
				c-0.035-2.732-0.887-5.39-2.446-7.633c-4.462-6.212-7.355-13.411-8.433-20.983l-0.392-2.046
				c-0.982-5.055-3.431-9.708-7.042-13.379c-1.639-1.695-2.552-3.963-2.546-6.321v-16.533c-0.006-1.376,0.302-2.736,0.9-3.975
				l0.983-2c1.747-3.583,2.669-7.513,2.696-11.5v-23.675c-0.159-15.594,12.331-28.376,27.925-28.575h27.475
				c15.594,0.199,28.084,12.981,27.925,28.575v23.675C297.693,201.18,298.631,205.146,300.407,208.759z M290.641,309.114
				l13.904,8.798l-13.563,11.75l-17.228-16.326L290.641,309.114z M221.678,308.897l17.752,4.438l-17.227,16.323l-14.075-12.182
				L221.678,308.897z M110.932,221.704c-0.141-66.693,45.21-124.89,109.916-141.05s132.094,13.88,163.327,72.808
				s18.263,131.56-31.436,176.035c-2.171-2.223-4.592-4.186-7.215-5.852l-47.075-29.779v-11.1c5.506-8,9.128-17.145,10.592-26.746
				l0.354-1.858c0.336-1.777,1.191-3.414,2.458-4.704c4.772-4.895,7.447-11.459,7.454-18.295v-16.534
				c0.003-3.991-0.906-7.931-2.658-11.517l-0.883-1.792c-0.647-1.296-1.001-2.719-1.038-4.167v-23.675
				c0.15-25.016-19.977-45.433-44.992-45.642h-27.475c-25.015,0.209-45.141,20.626-44.992,45.642v23.675
				c-0.031,1.41-0.368,2.796-0.988,4.062l-0.933,1.892c-1.752,3.588-2.661,7.528-2.658,11.521v16.533
				c0.007,6.835,2.68,13.397,7.45,18.292c1.278,1.304,2.138,2.959,2.471,4.754l0.346,1.812c1.446,9.605,5.069,18.751,10.592,26.742
				v11.096l-23.383,14.797c-0.184,0.086-0.336,0.225-0.516,0.326l-23.106,14.622c-2.648,1.677-5.092,3.655-7.284,5.895
				C128.536,302.089,110.957,262.879,110.932,221.704z"/>
			<path style="fill:#428DFF;" d="M50.798,409.018c4.713-0.046,8.522-3.855,8.567-8.567l-0.18-1.629
				c-0.107-0.566-0.29-1.115-0.542-1.632c-0.169-0.516-0.414-1.004-0.728-1.447c-0.33-0.466-0.693-0.909-1.084-1.326
				c-1.62-1.575-3.775-2.48-6.034-2.534c-2.874-0.054-5.577,1.364-7.166,3.759s-1.846,5.436-0.68,8.064
				c0.417,1.036,1.032,1.979,1.812,2.778C46.386,408.058,48.54,408.962,50.798,409.018z"/>
			<path style="fill:#428DFF;" d="M7.59,451.196l47.742,5.308l5.308,47.742c0.362,3.259,2.56,6.023,5.654,7.11
				c3.094,1.087,6.538,0.304,8.858-2.014l94.28-94.197c2.995,2.699,5.847,5.552,8.545,8.547
				c6.776,8.954,16.114,15.637,26.775,19.163c10.9,1.309,21.942-0.688,31.692-5.733c6.155-2.926,12.771-4.762,19.554-5.425
				c6.78,0.663,13.394,2.499,19.546,5.425c7.847,3.682,16.31,5.872,24.958,6.458c2.264,0.007,4.522-0.237,6.733-0.725
				c10.661-3.527,19.999-10.208,26.779-19.158c2.712-3.013,5.581-5.881,8.596-8.592l94.238,94.234
				c2.319,2.321,5.764,3.106,8.86,2.02c3.096-1.086,5.295-3.851,5.657-7.112l5.3-47.742l47.742-5.308
				c3.26-0.362,6.023-2.561,7.109-5.655c1.086-3.095,0.302-6.538-2.017-8.857l-85.368-85.363c4.415-3.893,9.321-7.192,14.593-9.811
				c10.26-4.419,18.933-11.856,24.867-21.321c3.783-10.308,4.295-21.532,1.467-32.142c-1.498-6.41-1.848-13.035-1.033-19.567
				c2.103-6.001,5.236-11.589,9.259-16.513c7.392-8.491,11.974-19.062,13.116-30.262c-1.143-11.201-5.725-21.774-13.117-30.267
				c-4.023-4.921-7.157-10.506-9.259-16.504c-0.815-6.532-0.465-13.157,1.033-19.567c2.831-10.607,2.322-21.83-1.458-32.137
				c-5.934-9.461-14.603-16.895-24.859-21.317c-5.934-2.778-11.342-6.563-15.983-11.187c-3.561-5.465-6.13-11.514-7.592-17.871
				c-2.152-10.864-7.578-20.808-15.55-28.496c-9.382-5.964-20.353-8.941-31.462-8.538c-6.684,0.005-13.319-1.137-19.617-3.375
				c-5.537-3.374-10.449-7.68-14.517-12.729c-6.776-8.954-16.114-15.637-26.775-19.163c-10.9-1.321-21.945,0.677-31.692,5.733
				c-6.155,2.926-12.771,4.762-19.554,5.425c-6.78-0.663-13.394-2.499-19.546-5.425c-9.748-5.053-20.792-7.051-31.692-5.733
				c-10.661,3.527-19.999,10.207-26.779,19.158c-4.067,5.049-8.977,9.355-14.512,12.729c-6.295,2.237-12.928,3.377-19.608,3.371
				c-11.112-0.404-22.084,2.575-31.467,8.542c-7.973,7.685-13.402,17.629-15.554,28.492c-1.462,6.355-4.032,12.403-7.592,17.867
				c-4.641,4.623-10.047,8.408-15.979,11.187c-10.259,4.422-18.931,11.858-24.867,21.321c-3.778,10.306-4.287,21.527-1.458,32.133
				c1.496,6.412,1.846,13.037,1.033,19.571c-2.105,6.001-5.241,11.589-9.267,16.513c-7.39,8.494-11.97,19.066-13.112,30.266
				c1.143,11.2,5.725,21.771,13.117,30.263c4.022,4.924,7.156,10.51,9.263,16.509c0.811,6.532,0.46,13.157-1.037,19.567
				c-2.831,10.607-2.322,21.829,1.458,32.137c5.936,9.461,14.606,16.895,24.862,21.316c5.276,2.622,10.186,5.923,14.606,9.818
				L68.9,370.281c-3.332,3.333-3.332,8.736,0,12.068c3.333,3.332,8.736,3.332,12.068,0l14.893-14.893
				c0.321,1.028,0.644,2.042,0.966,3.095c2.153,10.865,7.581,20.811,15.554,28.5c9.382,5.964,20.353,8.941,31.462,8.538
				c2.87,0.196,5.629,0.42,8.284,0.715L75.64,484.725l-4.1-36.892c-0.438-3.967-3.57-7.099-7.537-7.538l-36.884-4.098l5.578-5.578
				c3.332-3.333,3.332-8.736,0-12.068c-3.333-3.332-8.736-3.332-12.068,0l-6.034,6.034L2.498,436.684l0.091,0.091
				c-1.395,1.326-2.29,3.092-2.536,5.001c-0.251,2.249,0.403,4.505,1.817,6.272C3.283,449.814,5.341,450.947,7.59,451.196z
				 M447.998,440.296c-3.967,0.439-7.1,3.57-7.542,7.538l-4.092,36.883L359.941,408.3c2.628-0.288,5.357-0.51,8.195-0.704
				c11.111,0.404,22.083-2.573,31.467-8.538c7.974-7.688,13.402-17.634,15.554-28.5c0.323-1.057,0.648-2.076,0.971-3.108
				l68.745,68.745L447.998,440.296z M122.923,385.63c-5.027-5.674-8.408-12.614-9.775-20.071
				c-2.005-8.488-5.624-16.511-10.658-23.633c-5.944-6.388-13.045-11.592-20.925-15.338c-7.096-2.945-13.262-7.757-17.842-13.925
				c-1.974-7.181-1.949-14.765,0.071-21.933c1.946-8.566,2.221-17.426,0.808-26.096c-2.499-8.197-6.553-15.837-11.942-22.5
				c-5.156-5.755-8.616-12.826-9.996-20.429c1.379-7.604,4.839-14.677,9.996-20.433c5.388-6.664,9.442-14.303,11.942-22.5
				c1.414-8.672,1.141-17.536-0.804-26.104c-2.02-7.167-2.044-14.749-0.071-21.929c4.579-6.172,10.747-10.986,17.846-13.929
				c7.88-3.747,14.979-8.951,20.925-15.337c5.038-7.12,8.658-15.144,10.662-23.633c1.366-7.454,4.747-14.392,9.775-20.063
				c6.791-3.579,14.414-5.284,22.083-4.937c8.824-0.038,17.563-1.727,25.767-4.979c7.554-4.22,14.241-9.831,19.708-16.538
				c4.598-6.256,10.819-11.135,17.992-14.108c7.55-0.294,15.043,1.417,21.717,4.958c8.109,3.797,16.859,6.039,25.796,6.608
				c8.939-0.57,17.692-2.811,25.804-6.608c6.674-3.542,14.167-5.253,21.717-4.958c7.171,2.976,13.393,7.856,17.992,14.113
				c5.467,6.707,12.154,12.318,19.708,16.538c8.206,3.253,16.948,4.944,25.775,4.983c7.667-0.343,15.287,1.359,22.079,4.933
				c5.027,5.672,8.408,12.611,9.775,20.067c2.003,8.49,5.622,16.515,10.658,23.637c5.944,6.388,13.044,11.592,20.925,15.338
				c7.098,2.944,13.266,7.754,17.85,13.921c1.97,7.182,1.944,14.765-0.075,21.933c-1.947,8.568-2.224,17.431-0.817,26.104
				c2.506,8.192,6.56,15.827,11.942,22.492c5.157,5.756,8.619,12.829,10,20.433c-1.38,7.603-4.842,14.675-10,20.429
				c-5.389,6.666-9.443,14.308-11.942,22.508c-1.406,8.67-1.132,17.53,0.808,26.096c2.019,7.168,2.045,14.751,0.075,21.933
				c-4.583,6.17-10.751,10.983-17.85,13.929c-7.88,3.746-14.98,8.95-20.925,15.337c-1.64,2.08-3.066,4.321-4.256,6.688
				c-0.089,0.193-0.197,0.368-0.271,0.566c-2.505,5.276-4.556,10.756-6.132,16.38c-1.368,7.455-4.75,14.393-9.779,20.062
				c-6.791,3.579-14.414,5.284-22.083,4.937c-8.824,0.038-17.563,1.727-25.767,4.979c-7.554,4.22-14.241,9.831-19.708,16.538
				c-4.598,6.256-10.819,11.135-17.992,14.108c-7.549,0.282-15.039-1.428-21.717-4.958c-8.109-3.797-16.859-6.039-25.796-6.608
				c-8.939,0.57-17.692,2.811-25.804,6.608c-6.673,3.546-14.167,5.257-21.717,4.958c-7.172-2.976-13.393-7.856-17.992-14.113
				c-5.467-6.707-12.154-12.318-19.708-16.538c-8.206-3.253-16.948-4.944-25.775-4.983
				C137.335,390.906,129.715,389.203,122.923,385.63z"/>
		</g>
	</g>
</g>
<g>
</g>
<g>
</g>
<g>
</g>
<g>
</g>
<g>
</g>
<g>
</g>
<g>
</g>
<g>
</g>
<g>
</g>
<g>
</g>
<g>
</g>
<g>
</g>
<g>
</g>
<g>
</g>
<g>
</g>
</svg>
