<?xml version="1.0" encoding="iso-8859-1"?>
<!-- Generator: Adobe Illustrator 19.0.0, SVG Export Plug-In . SVG Version: 6.00 Build 0)  -->
<svg version="1.1" id="Capa_1" xmlns="http://www.w3.org/2000/svg" xmlns:xlink="http://www.w3.org/1999/xlink" x="0px" y="0px"
	 viewBox="0 0 512 512" style="enable-background:new 0 0 512 512;" xml:space="preserve">
<g>
	<g transform="translate(1 1)">
		<polygon style="fill:#A4C2F7;" points="502.511,340.333 425.711,502.467 7.578,502.467 84.378,340.333 7.578,169.667 
			75.845,7.533 493.978,7.533 425.711,169.667 		"/>
		<polygon style="fill:#E3E7F2;" points="476.911,340.333 400.111,502.467 7.578,502.467 84.378,340.333 7.578,169.667 
			75.845,7.533 468.378,7.533 400.111,169.667 		"/>
		<polygon style="fill:#A4C2F7;" points="502.511,340.333 84.378,340.333 7.578,169.667 425.711,169.667 		"/>
		<g>
			<polygon style="fill:#E3E7F2;" points="476.911,340.333 84.378,340.333 7.578,169.667 400.111,169.667 			"/>
			<polygon style="fill:#E3E7F2;" points="408.645,50.2 348.911,169.667 75.845,169.667 135.578,50.2 			"/>
			<polygon style="fill:#E3E7F2;" points="425.711,340.333 365.978,459.8 92.911,459.8 152.645,340.333 			"/>
		</g>
		<polygon style="fill:#A4C2F7;" points="425.711,340.333 152.645,340.333 75.845,169.667 348.911,169.667 		"/>
		<g>
			<polygon style="fill:#F5F5F5;" points="383.045,50.2 323.311,169.667 75.845,169.667 135.578,50.2 			"/>
			<polygon style="fill:#F5F5F5;" points="400.111,340.333 340.378,459.8 92.911,459.8 152.645,340.333 			"/>
		</g>
		<polygon style="fill:#D4E1F4;" points="400.111,340.333 152.645,340.333 75.845,169.667 323.311,169.667 		"/>
		<polygon style="fill:#FFFFFF;" points="33.178,169.667 101.445,7.533 75.845,7.533 7.578,169.667 84.378,340.333 7.578,502.467 
			33.178,502.467 109.978,340.333 		"/>
	</g>
	<g>
		<polygon style="fill:#FFFFFF;" points="0.71,167.356 43.761,65.118 68.977,5.222 84.713,11.844 59.488,71.74 16.446,173.978 		"/>
		<g>
			<path style="fill:#428DFF;" d="M41.107,101.777c-0.776-0.806-1.704-1.45-2.731-1.894c-2.092-0.846-4.427-0.87-6.537-0.068
				c-4.349,1.821-6.439,6.788-4.702,11.17l0.777,1.442c0.316,0.481,0.692,0.919,1.118,1.306c0.354,0.412,0.765,0.771,1.22,1.067
				c0.483,0.315,0.984,0.6,1.502,0.853c2.095,0.846,4.433,0.87,6.545,0.068c1.028-0.451,1.96-1.094,2.748-1.894
				c2.424-2.436,3.189-6.069,1.954-9.276C42.554,103.513,41.911,102.572,41.107,101.777z"/>
			<path style="fill:#428DFF;" d="M413.698,46.635c-1.565-2.471-4.286-3.968-7.211-3.968H133.421
				c-3.286,0.012-6.273,1.911-7.68,4.881l-28.416,59.878l-0.154,0.316l-25.728,54.391H42.711c-4.713,0-8.533,3.821-8.533,8.533
				c0,4.713,3.821,8.533,8.533,8.533h28.612l28.459,63.232c1.968,4.236,6.977,6.102,11.238,4.187
				c4.261-1.915,6.189-6.9,4.327-11.184l-6.076-13.568h107.307c1.195-0.012,2.373-0.28,3.456-0.785c0.051,0.004,0.102,0.004,0.154,0
				c0.335-0.209,0.652-0.446,0.947-0.708c1.078-0.524,1.944-1.4,2.458-2.483c0.336-0.448,0.622-0.932,0.853-1.442
				c0.195-0.598,0.32-1.217,0.375-1.843c0.115-0.417,0.198-0.842,0.247-1.271c0-0.06,0-0.111,0-0.171
				c-0.055-0.579-0.17-1.151-0.341-1.707c-0.084-0.549-0.218-1.089-0.401-1.613c0-0.06,0-0.119,0-0.179L209.803,179.2H344.39
				l49.894,110.933h-78.507c-4.713,0-8.533,3.82-8.533,8.533s3.82,8.533,8.533,8.533h86.187l11.52,25.6H278.513l-17.92-37.794
				c-0.226-0.355-0.48-0.692-0.759-1.007c-0.319-0.543-0.697-1.05-1.126-1.51c-0.891-0.617-1.814-1.186-2.765-1.707
				c-0.556-0.17-1.128-0.284-1.707-0.341c-0.44-0.141-0.891-0.244-1.348-0.307H139.991l-5.419-12.032
				c-1.968-4.236-6.977-6.102-11.238-4.187c-4.261,1.915-6.189,6.9-4.327,11.184l21.436,47.701h-20.932
				c-4.713,0-8.533,3.821-8.533,8.533c0,4.713,3.821,8.533,8.533,8.533h20.651L89.355,457.148c-1.252,2.644-1.063,5.745,0.502,8.217
				c1.565,2.472,4.287,3.97,7.212,3.969h273.067c3.286-0.012,6.273-1.911,7.68-4.881l54.298-114.586h37.265
				c4.713,0,8.533-3.821,8.533-8.533c0-4.713-3.821-8.533-8.533-8.533h-37.146l-69.12-153.6h29.466c4.713,0,8.533-3.821,8.533-8.533
				c0-4.713-3.82-8.533-8.533-8.533h-29.184l50.807-107.281C415.454,52.208,415.264,49.106,413.698,46.635z M203.044,204.8H101.591
				l-11.52-25.6h100.864L203.044,204.8z M247.511,307.2l12.134,25.6h-100.48l-11.494-25.6H247.511z M159.046,349.867h100.582
				l-48.495,102.4H110.551L159.046,349.867z M364.7,452.267h-43.972l19.797-41.873c2.017-4.26,0.199-9.349-4.062-11.366
				c-4.26-2.017-9.349-0.199-11.366,4.062l-23.253,49.178h-71.825l48.495-102.4h134.716L364.7,452.267z M344.476,162.133H90.327
				l20.207-42.667h85.777c4.713,0,8.533-3.821,8.533-8.533c0-4.713-3.821-8.533-8.533-8.533h-77.653l20.207-42.667h180.497
				l-19.797,41.873c-2.012,4.258-0.194,9.342,4.062,11.358c1.137,0.559,2.386,0.851,3.652,0.853c3.286-0.012,6.273-1.911,7.68-4.881
				l23.287-49.203h54.758L344.476,162.133z"/>
			<path style="fill:#428DFF;" d="M511.772,339.925c-0.069-0.602-0.203-1.194-0.401-1.766c-0.043-0.102,0-0.222-0.077-0.324
				l-75.273-167.253l66.825-158.72c1.117-2.637,0.837-5.658-0.746-8.045c-1.583-2.386-4.258-3.82-7.121-3.816H76.845
				c-3.435-0.001-6.535,2.057-7.868,5.222L40.45,72.977c-1.245,2.821-0.872,6.094,0.977,8.562c1.849,2.468,4.885,3.746,7.942,3.344
				c3.057-0.402,5.66-2.422,6.807-5.284l26.334-62.532h399.616l-63.283,150.289c0,0.051,0,0.102,0,0.145
				c-0.226,0.668-0.366,1.362-0.418,2.065c-0.098,0.395-0.166,0.798-0.205,1.203c0.049,0.43,0.132,0.855,0.247,1.271
				c0.068,0.673,0.219,1.336,0.452,1.971c-0.004,0.051-0.004,0.102,0,0.154l75.204,167.083L421.31,494.933H22.061l70.997-149.948
				c0.051-0.102,0-0.213,0.077-0.324c0.213-0.576,0.362-1.174,0.444-1.783c0.128-0.478,0.211-0.966,0.247-1.459
				c-0.028-0.504-0.102-1.003-0.222-1.493c-0.069-0.602-0.203-1.194-0.401-1.766c0-0.102,0-0.222-0.077-0.324L17.854,170.581
				l11.836-28.075c1.184-2.809,0.78-6.037-1.061-8.468c-1.841-2.43-4.838-3.694-7.863-3.315c-3.025,0.379-5.618,2.343-6.803,5.152
				L0.71,167.356h0.051c-0.961,2.174-0.961,4.653,0,6.827l75.23,167.066L0.898,499.814c-1.249,2.638-1.064,5.732,0.493,8.202
				c1.557,2.47,4.268,3.972,7.187,3.983h418.133c3.286-0.012,6.273-1.911,7.68-4.881l76.8-162.133c0.051-0.102,0-0.213,0.077-0.324
				c0.213-0.576,0.362-1.174,0.444-1.783c0.128-0.478,0.211-0.966,0.247-1.459C511.943,340.916,511.88,340.416,511.772,339.925z"/>
		</g>
	</g>
</g>
<g>
</g>
<g>
</g>
<g>
</g>
<g>
</g>
<g>
</g>
<g>
</g>
<g>
</g>
<g>
</g>
<g>
</g>
<g>
</g>
<g>
</g>
<g>
</g>
<g>
</g>
<g>
</g>
<g>
</g>
</svg>
