<svg height="503pt" viewBox="0 0 503.94733 503" width="503pt" xmlns="http://www.w3.org/2000/svg"><path d="m394.492188 67.621094v410.605468c-.023438 4.476563-1.820313 8.757813-5 11.90625-3.179688 3.148438-7.480469 4.90625-11.957032 4.882813h-352.1875c-5.75-.011719-11.113281-2.910156-14.269531-7.722656-1.785156-2.683594-2.722656-5.839844-2.683594-9.066407v-410.605468c.078125-9.304688 7.648438-16.800782 16.953125-16.785156h352.1875c4.476563-.023438 8.777344 1.730468 11.957032 4.878906 3.179687 3.148437 4.976562 7.433594 5 11.90625zm0 0" fill="#a4c2f7"/><path d="m369.3125 67.621094v410.605468c-.023438 4.476563-1.820312 8.757813-5 11.90625-3.179688 3.148438-7.480469 4.90625-11.957031 4.882813h-327.007813c-5.75-.011719-11.113281-2.910156-14.269531-7.722656-1.785156-2.683594-2.722656-5.839844-2.683594-9.066407v-410.605468c.078125-9.304688 7.648438-16.800782 16.953125-16.785156h327.007813c4.476562-.023438 8.777343 1.730468 11.957031 4.878906 3.179688 3.148437 4.976562 7.433594 5 11.90625zm0 0" fill="#e3e7f2"/><g fill="#a4c2f7"><path d="m75.539062 8.867188h25.183594c4.632813 0 8.390625 3.757812 8.390625 8.394531v67.144531c0 4.636719-3.757812 8.394531-8.390625 8.394531h-25.183594c-4.632812 0-8.390624-3.757812-8.390624-8.394531v-67.144531c0-4.636719 3.757812-8.394531 8.390624-8.394531zm0 0"/><path d="m151.082031 8.867188h25.179688c4.636719 0 8.394531 3.757812 8.394531 8.394531v67.144531c0 4.636719-3.757812 8.394531-8.394531 8.394531h-25.179688c-4.636719 0-8.394531-3.757812-8.394531-8.394531v-67.144531c0-4.636719 3.757812-8.394531 8.394531-8.394531zm0 0"/><path d="m226.621094 8.867188h25.183594c4.632812 0 8.390624 3.757812 8.390624 8.394531v67.144531c0 4.636719-3.757812 8.394531-8.390624 8.394531h-25.183594c-4.632813 0-8.390625-3.757812-8.390625-8.394531v-67.144531c0-4.636719 3.757812-8.394531 8.390625-8.394531zm0 0"/><path d="m302.164062 8.867188h25.179688c4.636719 0 8.394531 3.757812 8.394531 8.394531v67.144531c0 4.636719-3.757812 8.394531-8.394531 8.394531h-25.179688c-4.636718 0-8.394531-3.757812-8.394531-8.394531v-67.144531c0-4.636719 3.757813-8.394531 8.394531-8.394531zm0 0"/></g><path d="m328.367188 217.453125s51.503906-13.085937 167.300781-99.472656c-137.445313 41.96875-180.292969 72.804687-180.292969 72.804687zm0 0" fill="#e3e7f2"/><path d="m315.960938 235.203125c-18.367188 8.199219-39.742188 5.738281-55.765626-6.429687 11.566407-1.316407 19.089844-17.414063 21.898438-24.609376 0-.066406.070312-.089843 0-.132812.621094-1.535156.976562-2.660156 1.132812-3.070312l.085938-.269532c2.183594-4.6875 5.914062-8.476562 10.558594-10.746094 12.375-5.300781 26.734375.046876 32.625 12.15625 5.890625 12.105469 1.234375 26.707032-10.574219 33.171876zm0 0" fill="#a4c2f7"/><path d="m285.292969 495.015625h-260.113281c-5.707032-.011719-11.019532-2.917969-14.101563-7.722656l123.804687-305.351563c1.292969-3.125 4.328126-5.175781 7.707032-5.210937 3.382812-.035157 6.457031 1.949219 7.820312 5.042969l76.800782 177.605468 57.496093 132.949219c.402344.839844.601563 1.757813.585938 2.6875zm0 0" fill="#e3e7f2"/><path d="m390.964844 477.808594v.417968c0 9.273438-7.515625 16.789063-16.785156 16.789063h-94.257813c-2.769531-.253906-4.363281-.585937-4.53125-.921875 0 0-48.683594-106.347656-52.710937-108.527344-4.070313-2.1875-5.609376-7.253906-3.441407-11.332031l7.972657-14.855469 50.78125-94.261718c1.472656-2.832032 4.445312-4.5625 7.636718-4.445313 3.183594.101563 6.035156 1.984375 7.386719 4.867187zm0 0" fill="#e3e7f2"/><path d="m159.828125 361.191406c-3.433594-.003906-6.515625-2.09375-7.789063-5.28125l-9.847656-24.609375-8.390625 16.855469c-1.28125 2.5625-3.78125 4.292969-6.628906 4.59375s-5.652344-.871094-7.4375-3.109375l-31.730469-39.699219c-2.886718-3.628906-2.851562-5.207031-.492187-10.710937l47.621093-118.070313c1.453126-2.980468 4.546876-4.804687 7.859376-4.625 3.300781.136719 6.214843 2.195313 7.445312 5.261719l45.632812 105.160156-28.402343 68.945313c-1.269531 3.191406-4.355469 5.285156-7.789063 5.289062zm0 0" fill="#a4c2f7"/><path d="m304.765625 239.183594c-15.65625 2.886718-31.808594-.882813-44.570313-10.410156 9.066407-1.003907 15.613282-11.078126 19.304688-18.882813 13.867188 3.28125 24.058594 15.09375 25.265625 29.292969zm0 0" fill="#e3e7f2"/><path d="m25.179688 495.015625h25.179687c-5.707031-.011719-11.019531-2.917969-14.101563-7.722656-1.785156-2.683594-2.722656-5.839844-2.683593-9.066407v-410.605468c.078125-9.304688 7.648437-16.800782 16.953125-16.785156h-25.179688c-9.304687-.015626-16.875 7.480468-16.953125 16.785156v410.605468c-.039062 3.226563.898438 6.382813 2.683594 9.066407 3.082031 4.804687 8.394531 7.710937 14.101563 7.722656zm0 0" fill="#fff"/><path d="m16.785156 67.621094v411.277344h-16.785156v-411.277344zm0 0" fill="#fff"/><path d="m8.394531 143.164062c2.222657-.035156 4.347657-.902343 5.957031-2.4375 3.246094-3.308593 3.246094-8.605468 0-11.917968l-1.257812-1.007813c-.46875-.316406-.976562-.570312-1.511719-.753906-.476562-.242187-.984375-.414063-1.511719-.503906-.554687-.09375-1.113281-.148438-1.675781-.167969-2.222656.03125-4.351562.902344-5.960937 2.433594-.757813.804687-1.355469 1.742187-1.761719 2.769531-1.265625 3.132813-.578125 6.714844 1.761719 9.148437.804687.761719 1.742187 1.359376 2.769531 1.765626 1.011719.429687 2.09375.65625 3.191406.671874zm0 0" fill="#428dff"/><path d="m503.890625 117.597656c.015625-.617187-.042969-1.230468-.175781-1.832031 0-.082031 0-.160156 0-.234375-.1875-.449219-.421875-.878906-.695313-1.285156-.160156-.445313-.363281-.875-.605469-1.285156-.050781-.066407-.117187-.089844-.167968-.148438-.414063-.460938-.875-.878906-1.375-1.242188-.347656-.328124-.71875-.628906-1.109375-.898437-.996094-.367187-2.007813-.695313-3.03125-.992187-.476563-.019532-.953125.003906-1.425781.066406-.617188-.007813-1.234376.054687-1.835938.1875-.078125 0-.152344 0-.226562 0-36.402344 11.121094-66.160157 21.476562-90.355469 30.644531v-72.957031c0-13.90625-11.273438-25.179688-25.183594-25.179688h-33.570313v-33.574218c0-4.636719-3.757812-8.394532-8.394531-8.394532h-41.96875c-4.632812 0-8.390625 3.757813-8.390625 8.394532v33.574218h-16.789062v-33.574218c0-4.636719-3.757813-8.394532-8.394532-8.394532h-41.964843c-4.636719 0-8.394531 3.757813-8.394531 8.394532v33.574218h-16.785157v-33.574218c0-4.636719-3.757812-8.394532-8.394531-8.394532h-41.96875c-4.632812 0-8.390625 3.757813-8.390625 8.394532v33.574218h-16.789063v-33.574218c0-4.636719-3.757812-8.394532-8.394531-8.394532h-41.964843c-4.636719 0-8.394532 3.757813-8.394532 8.394532v33.574218h-33.574218c-13.90625 0-25.179688 11.273438-25.179688 25.179688v33.574218c0 4.636719 3.757812 8.394532 8.394531 8.394532 4.632813 0 8.390625-3.757813 8.390625-8.394532v-33.574218c0-4.636719 3.757813-8.394532 8.394532-8.394532h33.574218v33.574219c0 4.636719 3.757813 8.394531 8.394532 8.394531h41.964843c4.636719 0 8.394531-3.757812 8.394531-8.394531v-33.574219h16.789063v33.574219c0 4.636719 3.757813 8.394531 8.390625 8.394531h41.96875c4.636719 0 8.394531-3.757812 8.394531-8.394531v-33.574219h16.785157v33.574219c0 4.636719 3.757812 8.394531 8.394531 8.394531h41.964843c4.636719 0 8.394532-3.757812 8.394532-8.394531v-33.574219h16.789062v33.574219c0 4.636719 3.757813 8.394531 8.390625 8.394531h41.96875c4.636719 0 8.394531-3.757812 8.394531-8.394531v-33.574219h33.570313c4.636719 0 8.394531 3.757813 8.394531 8.394532v79.511718c-24.730468 9.359376-48.636718 20.769532-71.46875 34.109376-15.367187-5.808594-32.589844 1.46875-39.132812 16.535156-.046875.125-.34375.933594-.394532 1.066406-.164062.480469-.402343 1.175781-.746093 2.023438-.058594.152343-.117188.300781-.167969.453124-4.304688 10.910157-10.296875 18.566407-14.9375 19.09375-3.363281.386719-6.167969 2.753907-7.109375 6.003907s.160156 6.746093 2.792969 8.871093c11.316406 8.484376 25.015625 13.199219 39.15625 13.472657 8.863281-.019531 17.605468-2.074219 25.550781-6.011719 7.710937-3.796875 13.519531-10.601562 16.054687-18.816406 17.429688-6.472656 34.285157-14.378906 50.402344-23.644532v266.96875l-93.097656-201.710937c-1.335938-2.886719-4.183594-4.769531-7.363281-4.867187-3.175781-.097657-6.136719 1.605468-7.644531 4.40625l-50.789063 94.324218-76.808594-177.636718c-1.34375-3.109376-4.421875-5.105469-7.804687-5.0625-3.382813.039062-6.414063 2.109374-7.683594 5.246093l-118.121094 291.394531v-305.007812c0-4.636719-3.757812-8.394531-8.390625-8.394531-4.636719 0-8.394531 3.757812-8.394531 8.394531v310.554688c.0273438 7.320312 3.253906 14.257812 8.828125 18.996093.640625 2.511719 2.421875 4.574219 4.8125 5.574219 1.960937.820312 4.171875.820312 6.132813 0 1.777343.398438 3.589843.605469 5.40625.613281h352.523437c13.910156 0 25.183594-11.277343 25.183594-25.183593v-288.230469c33.761719-20.21875 66.40625-42.238281 97.800781-65.972657.058594-.039062.082031-.117187.140625-.15625.480469-.425781.90625-.90625 1.277344-1.429687.304687-.328125.585937-.683594.839843-1.058594.226563-.496093.40625-1.011719.535157-1.542969.199219-.480468.351562-.980468.453125-1.492187.027344-.472656.011718-.949219-.042969-1.417969zm-403.167969-33.191406h-25.183594v-67.144531h25.183594zm75.539063 0h-25.179688v-67.144531h25.179688zm75.542969 0h-25.183594v-67.144531h25.183594zm75.539062 0h-25.179688v-67.144531h25.179688zm-42.546875 203.433594 92.070313 199.453125h-94.367188l-46.8125-108.273438zm-188.273437 33.464844 22.804687 28.539062c1.789063 2.234375 4.597656 3.40625 7.445313 3.105469 2.847656-.304688 5.34375-2.039063 6.625-4.601563l8.390624-16.851562 9.847657 24.617187c1.277343 3.203125 4.390625 5.296875 7.839843 5.277344 3.433594 0 6.523438-2.09375 7.796876-5.285156l19.304687-48.382813 77.628906 179.570313h-234.964843zm46.417968-114.453126 34.210938 79.132813-17.675782 44.351563-8.980468-22.453126c-1.238282-3.0625-4.15625-5.117187-7.453125-5.246093-3.316407-.175781-6.414063 1.648437-7.867188 4.632812l-10.910156 21.824219-20.496094-25.617188zm193.324219-1.074218c-1.109375-5.074219-3.429687-9.808594-6.765625-13.789063 37.570312-19.898437 76.828125-36.421875 117.316406-49.386719-58.25 39.859376-94.410156 56.796876-110.550781 63.175782zm-23.980469 21.882812c-11.074218 5.339844-23.910156 5.675782-35.25.921875 5.453125-6.089843 9.734375-13.140625 12.621094-20.789062.171875-.339844.3125-.691407.429688-1.050781.386718-.972657.679687-1.8125.964843-2.644532l.085938-.226562c1.394531-2.777344 3.660156-5.023438 6.453125-6.394532 3.644531-1.738281 7.847656-1.878906 11.597656-.386718 4.164062 1.621094 7.550781 4.769531 9.46875 8.804687 1.414062 2.894531 2.023438 6.113281 1.761719 9.324219-.179688.601562-.28125 1.222656-.308594 1.847656-.796875 4.566406-3.695313 8.488282-7.824219 10.59375zm0 0" fill="#428dff"/></svg>